# xmcd
#
# Track frame offsets:
#	150
#	15298
#	34148
#	48136
#	61825
#	75190
#	94211
#	110954
#	127603
#	146026
#	162024
#	180006
#
# Disc length: 2564 seconds
#
# Revision: 2
# Processed by: cddbd v1.5.2PL0 Copyright (c) Steve Scherf et al.
# Submitted via: EZCDAudioConverter 1.0.6.1
#
DISCID=810a020c
DTITLE=Leon Chavis and the Zydeco Flames - The Heat Is On
DYEAR=2005
DGENRE=blues
TTITLE0=Intro
TTITLE1=Country Woman
TTITLE2=Hold Me Tight
TTITLE3=Dear Love
TTITLE4=Heart Of A Lion
TTITLE5=Hot Girl
TTITLE6=Don't Work Don't Eat
TTITLE7=Hey Momma
TTITLE8=The Heat Is On
TTITLE9=Allons Zydeco
TTITLE10=Casinos
TTITLE11=Vas Manger
EXTD=
EXTT0=
EXTT1=
EXTT2=
EXTT3=
EXTT4=
EXTT5=
EXTT6=
EXTT7=
EXTT8=
EXTT9=
EXTT10=
EXTT11=
PLAYORDER=
